<svg width="500" height="500" viewBox="0 0 500 500" fill="none" xmlns="http://www.w3.org/2000/svg">
<rect width="500" height="500" fill="#1E2A45"/>
<path d="M131.231 135.492C97.5914 140.228 74.1538 171.385 78.8815 205.083L98.8556 347.453C103.583 381.151 134.686 404.629 168.326 399.893L305.373 380.599C323.594 378.034 336.289 361.157 333.729 342.904C331.168 324.651 314.32 311.933 296.099 314.499C314.32 311.933 327.016 295.057 324.455 276.804C321.894 258.55 305.047 245.833 286.825 248.398C305.047 245.833 317.742 228.956 315.181 210.703C312.62 192.45 295.773 179.733 277.552 182.298L426.865 161.277C445.086 158.711 457.782 141.835 455.221 123.582C452.66 105.329 435.813 92.6111 417.591 95.1764L213.29 123.939C212.079 124.11 210.893 124.343 209.734 124.636C208.107 124.735 206.472 124.899 204.83 125.13L131.231 135.492Z" fill="#00FFDC"/>
<path d="M111.231 155.492C77.5914 160.228 54.1538 191.385 58.8815 225.083L78.8556 367.453C83.5833 401.151 114.686 424.629 148.326 419.893L285.373 400.599C303.594 398.034 316.289 381.157 313.729 362.904C311.168 344.651 294.32 331.933 276.099 334.499C294.32 331.933 307.016 315.057 304.455 296.804C301.894 278.55 285.047 265.833 266.825 268.398C285.047 265.833 297.742 248.956 295.181 230.703C292.62 212.45 275.773 199.733 257.552 202.298L406.865 181.277C425.086 178.711 437.782 161.835 435.221 143.582C432.66 125.329 415.813 112.611 397.591 115.176L193.29 143.939C192.079 144.11 190.893 144.343 189.734 144.636C188.107 144.735 186.472 144.899 184.83 145.13L111.231 155.492Z" fill="#FF008F"/>
</svg>
