<svg xmlns="http://www.w3.org/2000/svg" viewBox="0 0 64 64" width="64" height="64">
  <title>AI Brain Icon</title>
  <desc>Neural network brain icon representing artificial intelligence</desc>
  
  <!-- Brain shape -->
  <path d="M32 8C24 8 18 12 18 18C18 20 19 22 20 24C18 26 16 28 16 30C16 36 20 40 24 42C24 44 25 46 26 48C24 50 22 52 22 54C22 58 26 60 30 60C32 60 34 59 36 58C38 59 40 60 42 60C46 60 50 58 50 54C50 52 48 50 46 48C47 46 48 44 48 42C52 40 56 36 56 30C56 28 54 26 52 24C53 22 54 20 54 18C54 12 48 8 40 8C38 8 36 9 34 10C32 9 30 8 28 8C26 8 24 9 22 10C20 9 18 8 16 8C14 8 12 9 10 10C8 11 6 13 6 15C6 17 7 19 8 21C6 23 4 25 4 27C4 29 5 31 6 33C4 35 2 37 2 39C2 41 3 43 4 45C2 47 0 49 0 51C0 53 1 55 2 57C4 59 6 61 8 61C10 61 12 60 14 59C16 60 18 61 20 61C22 61 24 60 26 59C28 60 30 61 32 61C34 61 36 60 38 59C40 60 42 61 44 61C46 61 48 60 50 59C52 60 54 61 56 61C58 61 60 59 62 57C63 55 64 53 64 51C64 49 62 47 60 45C61 43 62 41 62 39C62 37 60 35 58 33C59 31 60 29 60 27C60 25 58 23 56 21C57 19 58 17 58 15C58 13 56 11 54 10C52 9 50 8 48 8C46 8 44 9 42 10C40 9 38 8 36 8C34 8 32 9 30 10C28 9 26 8 24 8Z" fill="#1E2A45" opacity="0.1"/>
  
  <!-- Neural network nodes -->
  <circle cx="20" cy="24" r="3" fill="#00FFDC"/>
  <circle cx="32" cy="20" r="3" fill="#00FFDC"/>
  <circle cx="44" cy="24" r="3" fill="#00FFDC"/>
  <circle cx="18" cy="32" r="3" fill="#FF008F"/>
  <circle cx="32" cy="32" r="4" fill="#1E2A45"/>
  <circle cx="46" cy="32" r="3" fill="#FF008F"/>
  <circle cx="20" cy="40" r="3" fill="#00FFDC"/>
  <circle cx="32" cy="44" r="3" fill="#00FFDC"/>
  <circle cx="44" cy="40" r="3" fill="#00FFDC"/>
  
  <!-- Neural network connections -->
  <line x1="20" y1="24" x2="32" y2="20" stroke="#00FFDC" stroke-width="1.5" opacity="0.6"/>
  <line x1="32" y1="20" x2="44" y2="24" stroke="#00FFDC" stroke-width="1.5" opacity="0.6"/>
  <line x1="20" y1="24" x2="18" y2="32" stroke="#00FFDC" stroke-width="1.5" opacity="0.6"/>
  <line x1="32" y1="20" x2="32" y2="32" stroke="#00FFDC" stroke-width="1.5" opacity="0.6"/>
  <line x1="44" y1="24" x2="46" y2="32" stroke="#00FFDC" stroke-width="1.5" opacity="0.6"/>
  <line x1="18" y1="32" x2="32" y2="32" stroke="#FF008F" stroke-width="1.5" opacity="0.6"/>
  <line x1="32" y1="32" x2="46" y2="32" stroke="#FF008F" stroke-width="1.5" opacity="0.6"/>
  <line x1="18" y1="32" x2="20" y2="40" stroke="#FF008F" stroke-width="1.5" opacity="0.6"/>
  <line x1="32" y1="32" x2="32" y2="44" stroke="#1E2A45" stroke-width="2" opacity="0.8"/>
  <line x1="46" y1="32" x2="44" y2="40" stroke="#FF008F" stroke-width="1.5" opacity="0.6"/>
  <line x1="20" y1="40" x2="32" y2="44" stroke="#00FFDC" stroke-width="1.5" opacity="0.6"/>
  <line x1="32" y1="44" x2="44" y2="40" stroke="#00FFDC" stroke-width="1.5" opacity="0.6"/>
  
  <!-- Brain outline -->
  <path d="M32 12C26 12 22 15 22 20C22 21 22.5 22 23 23C21.5 24.5 20.5 26 20.5 28C20.5 32 23 34.5 26 36C26 37.5 26.5 39 27.5 40.5C25.5 42.5 24 44.5 24 47C24 49.5 26 51 29 51C30 51 31 50.5 32 50C33 50.5 34 51 35 51C38 51 40 49.5 40 47C40 44.5 38.5 42.5 36.5 40.5C37.5 39 38 37.5 38 36C41 34.5 43.5 32 43.5 28C43.5 26 42.5 24.5 41 23C41.5 22 42 21 42 20C42 15 38 12 32 12Z" fill="none" stroke="#1E2A45" stroke-width="2"/>
</svg>
