<svg xmlns="http://www.w3.org/2000/svg" viewBox="0 0 64 64" width="64" height="64">
  <title>AI Robot Icon</title>
  <desc>Modern robot icon representing artificial intelligence and automation</desc>
  
  <!-- Robot head -->
  <rect x="16" y="12" width="32" height="28" rx="4" fill="#1E2A45"/>
  <rect x="18" y="14" width="28" height="24" rx="2" fill="#FFFFFF" opacity="0.1"/>
  
  <!-- Eyes -->
  <circle cx="26" cy="26" r="4" fill="#00FFDC"/>
  <circle cx="38" cy="26" r="4" fill="#00FFDC"/>
  <circle cx="26" cy="26" r="2" fill="#1E2A45"/>
  <circle cx="38" cy="26" r="2" fill="#1E2A45"/>
  
  <!-- Antenna -->
  <line x1="32" y1="12" x2="32" y2="6" stroke="#FF008F" stroke-width="2" stroke-linecap="round"/>
  <circle cx="32" cy="6" r="2" fill="#FF008F"/>
  
  <!-- Mouth/Display -->
  <rect x="24" y="32" width="16" height="4" rx="2" fill="#FF008F" opacity="0.8"/>
  
  <!-- Body -->
  <rect x="20" y="40" width="24" height="20" rx="3" fill="#1E2A45"/>
  <rect x="22" y="42" width="20" height="16" rx="1" fill="#FFFFFF" opacity="0.1"/>
  
  <!-- Chest panel -->
  <rect x="26" y="44" width="12" height="8" rx="1" fill="#00FFDC" opacity="0.3"/>
  <circle cx="32" cy="48" r="2" fill="#00FFDC"/>
  
  <!-- Arms -->
  <rect x="12" y="42" width="6" height="16" rx="3" fill="#1E2A45"/>
  <rect x="46" y="42" width="6" height="16" rx="3" fill="#1E2A45"/>
  
  <!-- Hands -->
  <circle cx="15" cy="60" r="3" fill="#1E2A45"/>
  <circle cx="49" cy="60" r="3" fill="#1E2A45"/>
  
  <!-- Legs -->
  <rect x="22" y="60" width="6" height="4" rx="2" fill="#1E2A45"/>
  <rect x="36" y="60" width="6" height="4" rx="2" fill="#1E2A45"/>
  
  <!-- Decorative elements -->
  <circle cx="24" cy="46" r="1" fill="#FF008F" opacity="0.6"/>
  <circle cx="40" cy="46" r="1" fill="#FF008F" opacity="0.6"/>
</svg>
