<svg xmlns="http://www.w3.org/2000/svg" viewBox="0 0 64 64" width="64" height="64">
  <title>AI Neural Network Icon</title>
  <desc>Neural network nodes and connections representing machine learning</desc>
  
  <!-- Background circle -->
  <circle cx="32" cy="32" r="30" fill="#1E2A45" opacity="0.1"/>
  
  <!-- Outer layer nodes -->
  <circle cx="32" cy="8" r="4" fill="#00FFDC"/>
  <circle cx="52" cy="18" r="4" fill="#00FFDC"/>
  <circle cx="56" cy="32" r="4" fill="#00FFDC"/>
  <circle cx="52" cy="46" r="4" fill="#00FFDC"/>
  <circle cx="32" cy="56" r="4" fill="#00FFDC"/>
  <circle cx="12" cy="46" r="4" fill="#00FFDC"/>
  <circle cx="8" cy="32" r="4" fill="#00FFDC"/>
  <circle cx="12" cy="18" r="4" fill="#00FFDC"/>
  
  <!-- Middle layer nodes -->
  <circle cx="32" cy="20" r="5" fill="#FF008F"/>
  <circle cx="44" cy="28" r="5" fill="#FF008F"/>
  <circle cx="44" cy="36" r="5" fill="#FF008F"/>
  <circle cx="32" cy="44" r="5" fill="#FF008F"/>
  <circle cx="20" cy="36" r="5" fill="#FF008F"/>
  <circle cx="20" cy="28" r="5" fill="#FF008F"/>
  
  <!-- Center node -->
  <circle cx="32" cy="32" r="6" fill="#1E2A45"/>
  <circle cx="32" cy="32" r="4" fill="#00FFDC" opacity="0.5"/>
  
  <!-- Connections from outer to middle layer -->
  <line x1="32" y1="8" x2="32" y2="20" stroke="#00FFDC" stroke-width="1.5" opacity="0.4"/>
  <line x1="52" y1="18" x2="44" y2="28" stroke="#00FFDC" stroke-width="1.5" opacity="0.4"/>
  <line x1="56" y1="32" x2="44" y2="32" stroke="#00FFDC" stroke-width="1.5" opacity="0.4"/>
  <line x1="52" y1="46" x2="44" y2="36" stroke="#00FFDC" stroke-width="1.5" opacity="0.4"/>
  <line x1="32" y1="56" x2="32" y2="44" stroke="#00FFDC" stroke-width="1.5" opacity="0.4"/>
  <line x1="12" y1="46" x2="20" y2="36" stroke="#00FFDC" stroke-width="1.5" opacity="0.4"/>
  <line x1="8" y1="32" x2="20" y2="32" stroke="#00FFDC" stroke-width="1.5" opacity="0.4"/>
  <line x1="12" y1="18" x2="20" y2="28" stroke="#00FFDC" stroke-width="1.5" opacity="0.4"/>
  
  <!-- Connections from middle to center -->
  <line x1="32" y1="20" x2="32" y2="32" stroke="#FF008F" stroke-width="2" opacity="0.6"/>
  <line x1="44" y1="28" x2="32" y2="32" stroke="#FF008F" stroke-width="2" opacity="0.6"/>
  <line x1="44" y1="36" x2="32" y2="32" stroke="#FF008F" stroke-width="2" opacity="0.6"/>
  <line x1="32" y1="44" x2="32" y2="32" stroke="#FF008F" stroke-width="2" opacity="0.6"/>
  <line x1="20" y1="36" x2="32" y2="32" stroke="#FF008F" stroke-width="2" opacity="0.6"/>
  <line x1="20" y1="28" x2="32" y2="32" stroke="#FF008F" stroke-width="2" opacity="0.6"/>
  
  <!-- Interconnections in middle layer -->
  <line x1="32" y1="20" x2="44" y2="28" stroke="#FF008F" stroke-width="1.5" opacity="0.4"/>
  <line x1="44" y1="28" x2="44" y2="36" stroke="#FF008F" stroke-width="1.5" opacity="0.4"/>
  <line x1="44" y1="36" x2="32" y2="44" stroke="#FF008F" stroke-width="1.5" opacity="0.4"/>
  <line x1="32" y1="44" x2="20" y2="36" stroke="#FF008F" stroke-width="1.5" opacity="0.4"/>
  <line x1="20" y1="36" x2="20" y2="28" stroke="#FF008F" stroke-width="1.5" opacity="0.4"/>
  <line x1="20" y1="28" x2="32" y2="20" stroke="#FF008F" stroke-width="1.5" opacity="0.4"/>
</svg>
